<svg width="80" height="80" viewBox="0 0 80 80" fill="none" xmlns="http://www.w3.org/2000/svg">
<circle cx="40" cy="40" r="40" fill="#5A9BFE" fill-opacity="0.15"/>
<g clip-path="url(#clip0_97_159)">
<path d="M54.72 39.84H27.8C26.7733 39.84 26 39.12 26 38.1467C26 37.2134 26.76 36.4534 27.6933 36.4534H54.6C55.5333 36.4534 56.2933 37.2134 56.2933 38.1467C56.3067 39.0667 55.5867 39.84 54.72 39.84ZM27.7067 37.4C27.2933 37.4 26.96 37.7334 26.96 38.1467C26.96 38.5867 27.32 38.8934 27.8133 38.8934H54.7333C55.0267 38.8934 55.3733 38.56 55.3733 38.1467C55.3733 37.7334 55.04 37.4 54.6267 37.4H27.7067Z" fill="#5A9BFE"/>
<path d="M54.0132 45.9732H28.7466C27.3599 45.9732 26.2266 44.8399 26.2266 43.4532C26.2266 43.1866 26.4399 42.9866 26.6932 42.9866C26.9466 42.9866 27.1599 43.1999 27.1599 43.4532C27.1599 44.3199 27.8666 45.0266 28.7466 45.0266H53.9999C54.8932 45.0266 55.5332 44.4132 55.5332 43.5599C55.5332 43.2932 55.7466 43.0932 55.9999 43.0932C56.2666 43.0932 56.4666 43.3066 56.4666 43.5599C56.4932 44.9332 55.4266 45.9732 54.0132 45.9732Z" fill="#5A9BFE"/>
<path d="M55.8799 44.0133C55.4399 44.0133 54.9999 43.7733 54.5466 43.5066C53.9733 43.1866 53.3333 42.8266 52.5599 42.8266C52.0933 42.8266 51.5999 42.9333 51.0799 43.1333C50.1999 43.4666 48.8799 43.7599 47.5866 43.2133C46.3466 42.6933 44.2799 42.6666 43.0133 43.1333C41.9733 43.52 40.9599 43.52 40.0799 43.16C38.9199 42.6666 37.1466 42.6266 35.8933 43C35.6399 43.0666 35.3866 42.9333 35.3066 42.68C35.2399 42.4266 35.3733 42.1733 35.6266 42.0933C37.0666 41.6666 39.0799 41.72 40.4399 42.2933C41.2533 42.64 42.1066 42.4666 42.6799 42.2533C44.1866 41.6933 46.4799 41.72 47.9466 42.3466C48.9599 42.7733 50.0266 42.5333 50.7333 42.2533C51.3599 42.0133 51.9733 41.8933 52.5599 41.8933C53.5733 41.8933 54.3733 42.3333 55.0133 42.6933C55.3066 42.8533 55.6266 43.04 55.8266 43.0666C55.8533 42.8133 55.7866 42.2799 55.6666 41.8133C55.6266 41.5333 55.2799 40.9866 55.0399 40.9866H37.3733C37.1066 40.9866 36.9066 40.7733 36.9066 40.52C36.9066 40.2666 37.1199 40.0533 37.3733 40.0533H55.0266C55.9599 40.0533 56.5066 41.1866 56.5733 41.6399C56.8133 42.5466 56.9599 43.7466 56.2133 43.9866C56.1066 43.9999 55.9999 44.0133 55.8799 44.0133Z" fill="#5A9BFE"/>
<path d="M26.7466 44.3465C26.6399 44.3465 26.5466 44.3199 26.4399 44.2399C26.3199 44.1465 25.9332 43.8665 26.0132 42.1732C26.1866 40.9199 27.2132 40.0665 28.5199 40.0665L32.2266 40.0532C32.4266 40.0399 32.7066 40.2665 32.7066 40.5199C32.7066 40.7865 32.4932 40.9865 32.2399 40.9999L28.5332 41.0132C27.8399 41.0132 27.0932 41.3999 26.9732 42.2665C26.9599 42.5732 26.9732 42.9199 26.9999 43.1865C27.0132 43.1865 27.0132 43.1732 27.0266 43.1732C27.6799 42.6799 28.8799 41.7599 30.4266 41.7599C31.4799 41.7599 32.4666 41.9465 33.2266 42.2799C33.5466 42.4265 33.9199 42.4932 34.2932 42.4665C34.5732 42.4532 34.7732 42.6532 34.7866 42.9199C34.7999 43.1865 34.5999 43.3999 34.3332 43.4132C33.8266 43.4399 33.3066 43.3465 32.8399 43.1465C32.1999 42.8665 31.3466 42.7065 30.4266 42.7065C29.1999 42.7065 28.1999 43.4799 27.5999 43.9332C27.2666 44.1332 26.9999 44.3465 26.7466 44.3465Z" fill="#5A9BFE"/>
<path d="M34.8268 44.1732L31.8668 40.8265C31.6935 40.6265 31.7068 40.3332 31.9068 40.1598C32.1068 39.9865 32.4001 39.9998 32.5735 40.1998L34.8135 42.7332L37.0135 40.1998C37.1868 39.9998 37.4801 39.9865 37.6801 40.1465C37.8801 40.3198 37.8935 40.6132 37.7335 40.8132L34.8268 44.1732Z" fill="#5A9BFE"/>
<path d="M28.16 40.9998C27.68 40.9998 26.6533 40.9465 26.2133 40.4931C26.0666 40.3465 25.9866 40.1598 26 39.9598C26 39.3598 26.7333 38.8931 27.6933 38.8931H54.6C55.56 38.8931 56.2933 39.3598 56.2933 39.9731C56.2933 40.5865 55.68 40.9731 54.7733 40.9731H37.3733C37.1066 40.9731 36.9066 40.7598 36.9066 40.5065C36.9066 40.2531 37.12 40.0398 37.3733 40.0398H54.7866C54.9866 40.0398 55.1466 40.0131 55.2533 39.9731C55.12 39.9065 54.9066 39.8531 54.6133 39.8531H27.7066C27.4666 39.8531 27.28 39.8931 27.1466 39.9465C27.3866 40.0131 27.8 40.0798 28.3066 40.0531L32.2266 40.0398C32.48 40.0398 32.6933 40.2531 32.6933 40.5065C32.6933 40.7731 32.48 40.9865 32.2266 40.9865L28.32 40.9998C28.2666 40.9998 28.2133 40.9998 28.16 40.9998Z" fill="#5A9BFE"/>
<path d="M55.1867 37.4H27.1333C26.5067 37.4 26 36.8933 26 36.2667C26 30.9733 30.3067 26.6667 35.6 26.6667H46.7067C52 26.6667 56.3067 30.9733 56.3067 36.2667C56.3067 36.8933 55.8 37.4 55.1867 37.4ZM35.6 27.6133C30.8267 27.6133 26.9467 31.4933 26.9467 36.2667C26.9467 36.3733 27.0267 36.4533 27.1333 36.4533H55.1733C55.28 36.4533 55.36 36.3733 55.36 36.2667C55.36 31.4933 51.48 27.6133 46.7067 27.6133H35.6Z" fill="#5A9BFE"/>
<path d="M51.9199 52.0799H30.4799C28.1332 52.0799 26.2266 50.1733 26.2266 47.8266V47.1599C26.2266 45.9866 27.1732 45.0399 28.3466 45.0399H54.0532C55.2266 45.0399 56.1732 45.9866 56.1732 47.1599V47.8266C56.1732 50.1733 54.2666 52.0799 51.9199 52.0799ZM28.3466 45.9733C27.6932 45.9733 27.1599 46.5066 27.1599 47.1466V47.8133C27.1599 49.6399 28.6399 51.1199 30.4666 51.1199H51.9066C53.7332 51.1199 55.2132 49.6399 55.2132 47.8133V47.1466C55.2132 46.4933 54.6799 45.9733 54.0266 45.9733H28.3466Z" fill="#5A9BFE"/>
<path d="M32.2266 31.6531C32.1066 31.6531 31.9733 31.5997 31.8933 31.5064C31.7066 31.3197 31.7199 31.0264 31.9066 30.8397L33.6933 29.1197C33.8666 28.9331 34.1733 28.9464 34.3466 29.1331C34.5333 29.3197 34.5199 29.6131 34.3333 29.7997L32.5466 31.5197C32.4666 31.6131 32.3466 31.6531 32.2266 31.6531Z" fill="#5A9BFE"/>
<path d="M39.7334 31.6531C39.6134 31.6531 39.4801 31.5997 39.4001 31.5064C39.2134 31.3197 39.2268 31.0264 39.4134 30.8397L41.2001 29.1197C41.3868 28.9331 41.6934 28.9464 41.8668 29.1331C42.0534 29.3197 42.0401 29.6131 41.8534 29.7997L40.0668 31.5197C39.9734 31.6131 39.8534 31.6531 39.7334 31.6531Z" fill="#5A9BFE"/>
<path d="M47.2398 31.6531C47.1198 31.6531 46.9865 31.5997 46.9065 31.5064C46.7198 31.3197 46.7331 31.0264 46.9198 30.8397L48.7065 29.1197C48.8931 28.9331 49.1998 28.9464 49.3731 29.1331C49.5598 29.3197 49.5465 29.6131 49.3598 29.7997L47.5731 31.5197C47.4798 31.6131 47.3598 31.6531 47.2398 31.6531Z" fill="#5A9BFE"/>
</g>
<defs>
<clipPath id="clip0_97_159">
<rect width="30.7733" height="25.4133" fill="white" transform="translate(26 26.6667)"/>
</clipPath>
</defs>
</svg>
