<svg width="196" height="138" viewBox="0 0 196 138" fill="none" xmlns="http://www.w3.org/2000/svg">
<g clip-path="url(#clip0_1344_391)">
<path d="M44.0425 118.317C44.7379 115.713 41.292 103.916 51.9638 97.6758C62.7403 91.3747 72.8959 95.5971 84.1246 103.22C85.8793 101.649 96.4205 90.566 111.691 91.8366C124.587 92.9097 132.611 100.605 134.663 102.7C139.336 95.6481 147.186 91.8596 154.308 93.2538C164.103 95.1716 168.02 106.012 169.042 108.84C170.193 112.024 170.534 114.868 170.626 116.869C124.946 117.447 89.7223 117.74 44.042 118.317H44.0425Z" fill="url(#paint0_linear_1344_391)"/>
<path d="M161.445 88.9445C162.007 89.2371 162.499 89.5301 162.924 89.8213C165.975 91.9083 165.59 93.8941 163.129 95.0184C161.732 95.7534 157.282 91.7179 154.967 92.8219C153.351 93.5924 152.39 95.4232 151.956 96.4595C151.767 96.909 151.679 97.2089 151.679 97.2089C151.679 97.2089 151.745 94.8192 151.096 93.4332C151.096 93.4332 146.297 84.379 151.096 82.4673C154.073 81.4162 154.541 84.8671 154.58 85.2116C154.538 84.6923 154.007 77.1579 158.833 76.784C158.833 76.784 161.404 76.784 161.335 78.8213C164.047 74.9605 169.38 77.1846 168.289 80.1843C167.233 83.0873 163.701 84.1389 163.474 84.2042C163.649 84.1633 165.741 83.6936 167.182 84.3234C168.126 84.7346 168.792 85.6173 168.462 87.3975C168.128 89.4744 164.483 88.8015 162.539 88.7711C162.538 88.7711 162.536 88.7711 162.535 88.772C162.266 88.7674 162.031 88.7757 161.841 88.8051C161.667 88.8323 161.533 88.8764 161.445 88.945V88.9445Z" fill="#00593B"/>
<path d="M163.827 79.3232C163.827 79.3232 152.488 85.7807 151.662 97.4528" stroke="#134411" stroke-width="8.18" stroke-linecap="round" stroke-linejoin="round"/>
<path d="M162.08 92.0491C162.08 92.0491 156.769 87.2991 153.453 90.6231" stroke="#134411" stroke-width="8.18" stroke-linecap="round" stroke-linejoin="round"/>
<path d="M165 85.8783C165 85.8783 159.031 84.4799 155.43 87.313" stroke="#134411" stroke-width="8.18" stroke-linecap="round" stroke-linejoin="round"/>
<path d="M158.388 78.5977C158.388 78.5977 159.238 81.4786 157.84 84.2391" stroke="#134411" stroke-width="8.18" stroke-linecap="round" stroke-linejoin="round"/>
<path d="M151.934 84.8486C151.934 84.8486 153.288 88.3405 152.764 92.0881" stroke="#1A1A1A" stroke-width="8.18" stroke-linecap="round" stroke-linejoin="round"/>
<path d="M163.13 95.0179C161.733 95.753 157.283 91.7174 154.968 92.8214C153.352 93.5919 152.391 95.4227 151.957 96.4591C152.072 94.6991 152.727 92.3531 155.278 91.5992C159.538 90.3411 164.221 95.6007 162.925 89.8213C165.976 91.9083 165.591 93.8941 163.13 95.0184V95.0179Z" fill="#339E7E"/>
<path d="M162.539 88.771C164.351 88.6307 168.937 87.9227 167.122 84.3449C167.143 84.3375 167.164 84.3301 167.183 84.3232C168.127 84.7345 168.792 85.6172 168.463 87.3974C168.129 89.4743 164.484 88.8013 162.54 88.771H162.539Z" fill="#339E7E"/>
<path d="M168.214 91.2821C163.521 93.1382 165.111 100.955 160.627 103.22C160.627 103.22 160.687 103.221 160.799 103.23C161.063 103.182 161.358 103.134 161.683 103.091C163.202 102.888 170.933 103.542 173.901 108.645C176.832 113.688 178.996 111.153 179.046 111.094C179.046 111.093 179.046 111.093 179.046 111.093C179.246 109.824 178.768 108.076 177.17 106.008C182.447 106.255 182.468 112.917 186.613 108.435C189.281 105.551 186.078 103.304 185.972 103.229C186.176 103.309 196.458 106.119 195.984 99.6596C195.354 91.0742 186.128 97.3592 186.008 97.4677C186.073 97.372 188.861 93.2541 184.842 90.6386C181.158 88.2406 179.05 91.7623 178.687 92.4427C178.953 91.8796 179.956 89.3202 176.843 88.1357C173.37 86.8155 170.814 94.1391 170.76 94.2946C170.776 94.1934 171.492 89.9858 168.213 91.283L168.214 91.2821Z" fill="#339E7E"/>
<path d="M160.627 103.219C168.323 98.5709 172.056 99.3603 176.511 101.399C180.965 103.439 188.991 99.5264 188.991 99.5264" stroke="white" stroke-width="8.18" stroke-linecap="round" stroke-linejoin="round"/>
<path d="M184.37 94.0498C184.37 94.0498 182.629 101.559 176.24 101.277" stroke="white" stroke-width="8.18" stroke-linecap="round" stroke-linejoin="round"/>
<path d="M176.314 90.7979C176.314 90.7979 176.865 99.0079 171.141 99.8148" stroke="white" stroke-width="8.18" stroke-linecap="round" stroke-linejoin="round"/>
<path d="M183.906 105.404C183.906 105.404 182.334 102.557 180.035 101.981" stroke="white" stroke-width="8.18" stroke-linecap="round" stroke-linejoin="round"/>
<path d="M173.467 105.988C173.467 105.988 172.325 100.94 168.203 99.9941" stroke="white" stroke-width="8.18" stroke-linecap="round" stroke-linejoin="round"/>
<path d="M168.424 94.7695C168.424 94.7695 168.298 99.629 166.014 100.581" stroke="white" stroke-width="8.18" stroke-linecap="round" stroke-linejoin="round"/>
<path d="M160.799 103.229C162.02 103.311 169.397 104.052 172.17 109.916C174.299 114.418 178.573 114.103 179.046 111.093C178.996 111.153 176.832 113.688 173.9 108.644C170.934 103.542 163.202 102.887 161.682 103.09C161.358 103.133 161.062 103.181 160.799 103.229Z" fill="#127755"/>
<path d="M187.003 104.25C188.282 106.558 185.558 111.006 182.112 108.129C178.531 105.141 177.17 106.007 177.17 106.007C177.17 106.007 182.041 110.872 185.408 110.039C187.28 109.575 189.47 106.634 187.003 104.25V104.25Z" fill="#127755"/>
<path d="M160.799 103.229C160.799 103.229 155.575 107.719 154.583 106.283C153.592 104.847 161.587 102.655 161.587 102.655L160.799 103.229H160.799Z" fill="#1A1A1A"/>
<path d="M108.155 109.257C100.85 109.257 93.7546 109.405 86.9731 109.684C78.611 108.921 69.0184 108.487 58.8188 108.487C26.3339 108.487 0 112.888 0 118.316C0 121.427 8.65004 124.2 22.1501 126.001C29.0126 132.809 64.9063 138 108.155 138C156.308 138 195.344 131.565 195.344 123.628C195.344 115.691 156.308 109.257 108.155 109.257Z" fill="url(#paint1_linear_1344_391)"/>
<g style="mix-blend-mode:multiply" opacity="0.5">
<path d="M37.856 117.234L24.1855 123.243L89.9548 124.356L69.6418 115.217C69.6418 115.217 83.5664 113.733 86.0081 111.68L86.9729 109.684C86.9729 109.684 53.1639 106.122 39.6139 109.169C46.7824 111.991 49.488 116.695 37.8555 117.233L37.856 117.234Z" fill="#152A52"/>
</g>
<g style="mix-blend-mode:multiply" opacity="0.5">
<path d="M139.695 124.357C156.39 124.357 169.924 122.132 169.924 119.388C169.924 116.644 156.39 114.42 139.695 114.42C123.001 114.42 109.467 116.644 109.467 119.388C109.467 122.132 123.001 124.357 139.695 124.357Z" fill="#152A52"/>
</g>
<path d="M57.9785 36.2744V114.586H62.0517V36.4078L57.9785 36.2744Z" fill="#CCC4CC"/>
<path d="M56.2207 36.2744V114.586H58.3184V36.4078L56.2207 36.2744Z" fill="#666266"/>
<path d="M108.004 82.7746L117.637 75.8047L116.141 87.0319L113.68 82.1481L108.004 82.7746Z" fill="#D1334A"/>
<path d="M102.912 55.0679L106.296 47.3164L109.466 54.7574L106.174 52.6404L102.912 55.0679Z" fill="#D1334A"/>
<path d="M156.683 11.1107H178.616C180.624 11.1107 182.253 9.49245 182.253 7.49651V4.27145C182.253 2.27551 180.624 0.657227 178.616 0.657227H156.683C154.675 0.657227 153.047 2.27551 153.047 4.27145L154.156 15.8616C154.156 15.8616 156.663 11.2989 156.683 11.1107Z" fill="#CCC4CC"/>
<path d="M157.793 10.454H179.725C181.734 10.454 183.362 8.83568 183.362 6.83974V3.61468C183.362 1.61828 181.734 0 179.725 0H157.793C155.785 0 154.156 1.61828 154.156 3.61422V15.7177C154.156 16.8963 156.97 10.454 157.793 10.454Z" fill="white"/>
<path d="M157.003 2.92871L180.328 2.92871V2.08829L157.003 2.08829V2.92871Z" fill="#152A52"/>
<path d="M157.003 5.64746L180.328 5.64746V4.80704L157.003 4.80704V5.64746Z" fill="#152A52"/>
<path d="M157.003 8.36523L180.328 8.36523V7.52481L157.003 7.52481V8.36523Z" fill="#152A52"/>
<path d="M181.102 30.2891C181.102 31.8803 180.59 33.3546 179.721 34.5561C178.385 36.4058 176.201 37.6105 173.734 37.6105C169.666 37.6105 166.367 34.3321 166.367 30.2891C166.367 26.2462 169.666 22.9678 173.734 22.9678C176.101 22.9678 178.208 24.0764 179.556 25.8014C180.525 27.0402 181.102 28.5973 181.102 30.2891H181.102Z" fill="url(#paint2_linear_1344_391)"/>
<path d="M181.102 30.2895C181.102 31.8807 180.59 33.355 179.721 34.5565L173.734 30.2895L179.556 25.8018C180.525 27.0405 181.102 28.5976 181.102 30.2895H181.102Z" fill="#152A52"/>
<path d="M28.9922 84.2393C28.9922 84.2393 29.2445 84.3124 29.7218 84.4417" stroke="#1A1A1A" stroke-width="5.45" stroke-linecap="round" stroke-linejoin="round"/>
<path d="M31.1914 84.8277C44.941 88.3467 118.371 104.67 113.613 50.5038C108.873 -3.45923 64.6934 10.149 56.1897 13.2871" stroke="#1A1A1A" stroke-width="5.45" stroke-linecap="round" stroke-linejoin="round"/>
<path d="M55.4792 13.5566C55.0218 13.7347 54.7773 13.8395 54.7773 13.8395" stroke="#1A1A1A" stroke-width="5.45" stroke-linecap="round" stroke-linejoin="round"/>
<path d="M25.2832 78.8955L36.4717 85.9321L24.1855 88.9244L28.2569 84.4426L25.2832 78.8955Z" fill="#D1334A"/>
<path d="M112.293 32.1749C109.951 30.7337 108.592 28.6085 107.349 26.4023C107.14 26.8453 107.047 27.2938 107.154 27.6591C108.025 30.6716 113.706 38.2363 122.431 37.406C127.139 36.958 129.652 35.9032 130.968 35.0273C124.524 35.7072 118 35.7946 112.293 32.1749H112.293Z" fill="#FFB114"/>
<path d="M132.345 33.6627L135.467 23.459C135.467 23.459 129.749 25.0395 124.978 29.002C119.101 33.884 110.806 26.0147 110.086 24.6886C109.363 24.0312 107.919 25.1969 107.35 26.4021C108.592 28.6082 109.951 30.7334 112.294 32.1746C118.002 35.7943 124.525 35.7069 130.97 35.0271C132.092 34.28 132.345 33.6627 132.345 33.6627Z" fill="#FFDE70"/>
<path d="M109.847 24.9643C109.847 24.9643 111.22 25.9483 110.098 27.2735C108.976 28.5988 107.193 27.9033 107.379 27.0638C107.563 26.2243 108.831 24.6368 109.848 24.899" fill="#1A1A1A"/>
<path d="M109.847 24.9643C109.847 24.9643 111.22 25.9483 110.098 27.2735C108.976 28.5988 107.193 27.9033 107.379 27.0638C107.563 26.2243 108.831 24.6368 109.848 24.899" stroke="#1A1A1A" stroke-width="5.45" stroke-linecap="round" stroke-linejoin="round"/>
<path d="M123.016 113.492C125.403 113.594 127.853 113.768 130.011 112.785C130.235 112.69 130.43 112.548 130.601 112.375C131.167 114.285 131.747 116.679 131.367 117.434C130.702 118.754 116.474 120.955 114.758 120.185C113.415 119.582 119.764 115.815 123.015 113.492H123.016Z" fill="#1A1A1A"/>
<path d="M130.011 112.785C127.853 113.768 125.403 113.594 123.016 113.491C123.921 112.845 124.586 112.31 124.779 111.987C125.665 110.501 129.761 109.786 129.761 109.786C129.761 109.786 130.177 110.945 130.601 112.375C130.43 112.548 130.235 112.69 130.011 112.785H130.011Z" fill="white"/>
<path d="M156.51 109.421C156.843 108.95 157.068 108.575 157.126 108.342C157.514 106.786 160.832 105.196 160.832 105.196C160.832 105.196 161.291 105.884 161.866 106.827C160.471 108.289 158.525 109.171 156.51 109.421H156.51Z" fill="white"/>
<path d="M156.51 109.421C158.525 109.17 160.471 108.289 161.866 106.826C162.878 108.484 164.247 110.93 164.094 111.794C163.854 113.148 152.262 118.411 150.607 118.103C149.2 117.84 154.617 112.093 156.51 109.421Z" fill="#1A1A1A"/>
<path d="M134.936 65.7316C133.292 69.2506 132.027 73.0212 130.762 76.6658C127.094 87.8516 127.6 99.2886 126.461 110.852C126.395 111.373 126.295 111.895 126.18 112.416C128.026 112.091 130.199 111.182 130.385 108.714C130.43 103.51 133.148 83 134.02 78.2905C134.79 74.1275 138.09 65.8374 139.812 61.6758C137.671 62.093 135.821 63.864 134.937 65.7307L134.936 65.7316Z" fill="#102140"/>
<path d="M146.677 47.4385L132.357 48.0691C132.357 48.0691 125.057 59.2752 123.479 68.6187C121.079 82.8281 123.555 112.573 123.555 112.573C123.555 112.573 124.772 112.665 126.18 112.417C126.296 111.896 126.396 111.374 126.461 110.853C127.599 99.2897 127.093 87.8527 130.762 76.6669C132.027 73.0223 133.292 69.2517 134.936 65.7327C135.82 63.8655 137.67 62.095 139.811 61.6778C140.445 60.1451 140.865 59.1712 140.865 59.1712L146.678 47.4394L146.677 47.4385Z" fill="#152A52"/>
<path d="M150.621 79.3053C149.862 77.5458 150.621 75.4091 150.368 73.398C150.368 72.6441 149.736 72.0157 149.609 71.2613C149.483 66.7368 150.242 62.0866 150.115 57.5621C150.012 54.0845 148.234 51.2725 146.552 48.3818C144.823 49.3037 142.248 50.2306 138.875 50.2306L138.361 59.5557C138.361 59.5557 137.202 73.709 141.888 83.4881C145.909 91.8808 154.444 109.971 157.126 108.341C158.734 107.49 159.791 106.97 160.432 106.667C160.278 105.347 160.015 104.04 159.602 102.808C156.693 94.8897 153.53 87.2229 150.621 79.3049L150.621 79.3053Z" fill="#152A52"/>
<path d="M151.892 72.9709C151.101 70.215 154.373 53.9112 149.142 46.5664C149.142 46.5664 148.261 47.4717 146.553 48.3829C148.234 51.274 150.012 54.0856 150.116 57.5632C150.242 62.0877 149.483 66.7379 149.61 71.2624C149.736 72.0164 150.368 72.6447 150.368 73.3991C150.621 75.4102 149.862 77.5465 150.621 79.3064C153.531 87.2244 156.693 94.8912 159.602 102.809C160.016 104.042 160.278 105.348 160.432 106.669C161.009 106.396 161.249 106.3 161.249 106.3C161.249 106.3 152.682 75.7272 151.892 72.9709Z" fill="#102140"/>
<path d="M150.155 48.394C150.155 48.394 146.854 53.5989 140.167 52.8243C133.481 52.0496 131.527 50.0132 131.527 50.0132L131.738 48.9161L149.28 46.8213C149.28 46.8213 149.891 47.5067 150.155 48.394Z" fill="#1A1A1A" stroke="#1A1A1A" stroke-width="5.45" stroke-linecap="round" stroke-linejoin="round"/>
<path d="M142.271 45.1202C144.042 41.978 146.193 39.0873 147.205 35.5683C147.584 34.3116 147.964 33.1805 148.09 31.9237C148.406 29.9637 148.082 28.1016 147.455 26.337C146.092 24.9152 144.306 23.8875 142.022 23.4515C140.071 23.0784 137.926 22.5108 135.072 23.6005C131.348 25.0684 129.874 27.7796 129.938 31.34C129.93 32.8456 130.113 34.4689 130.286 36.1567C130.604 39.2566 130.969 42.524 131.245 44.9307C134.703 46.2757 138.845 46.1612 142.271 45.1207V45.1202Z" fill="#FFDE70"/>
<path d="M150.248 39.0564C150.248 39.0564 150.795 32.8257 150.108 30.8389C149.515 29.1231 148.647 27.5794 147.456 26.3369C148.082 28.1015 148.407 29.9636 148.091 31.9236C147.965 33.1803 147.585 34.3115 147.205 35.5682C146.193 39.0872 144.043 41.9778 142.272 45.1201C138.846 46.1602 134.704 46.2752 131.246 44.9301C131.496 47.1114 131.672 48.5857 131.672 48.5857C138.468 53.2299 152.499 55.0561 150.248 39.0564Z" fill="#FFCF4A"/>
<path d="M146.783 36.8581C146.783 36.8581 147.725 42.495 150.489 43.093C150.727 41.8832 150.489 39.7331 150.489 39.7331C150.489 39.7331 147.774 36.8057 146.783 36.8581Z" fill="#BF850F"/>
<path d="M141.896 24.6904C141.896 24.6904 141.419 24.2129 142.708 21.1576C144.645 19.4579 147.062 12.3288 141.307 10.2105C135.552 8.09221 134.58 17.8014 134.705 19.8526C134.743 21.0587 137.269 21.0564 137.269 21.0564C137.269 21.0564 136.771 23.528 136.523 24.2437C136.973 25.9545 141.151 25.3441 141.896 24.6904Z" fill="#FC9590"/>
<path d="M142.123 15.8735C142.123 15.8735 141.615 16.2741 141.134 16.8868C140.796 17.3174 143.093 15.862 143.421 17.7521C143.701 19.3649 141.328 19.5631 141.608 20.0613C141.788 20.381 142.297 20.8566 142.709 21.1575C145.624 23.2868 146.401 19.7687 146.72 17.6997C147.234 14.3637 147.28 9.96292 143.414 10.9841C143.315 7.15738 138.957 7.02858 134.15 8.24344C132.418 11.6217 134.221 13.2022 136.672 13.1857C139.123 13.1691 141.623 13.7427 142.123 15.873L142.123 15.8735Z" fill="#102140"/>
<path d="M138.889 25.2211L139.8 27.1163L138.987 28.045L138.12 27.9797L137.217 26.4902L138.324 25.1797L138.889 25.2211Z" fill="#1A1A1A"/>
<path d="M138.966 27.8548L138.017 27.7168L135.082 38.9633C135.082 38.9633 136.269 45.9494 137.049 45.9494C137.829 45.9494 139.525 39.1207 139.525 39.1207L138.966 27.8548H138.966Z" fill="#1A1A1A"/>
<path d="M136.429 21.4121C137.057 21.4126 137.317 22.2981 137.583 23.1684L138.12 25.3695C138.12 25.3695 136.234 25.2793 135.966 24.5051C135.699 23.7314 135.982 21.8772 135.982 21.8772L136.429 21.4121Z" fill="white"/>
<path d="M142.823 23.1023L142.334 22.1064C142.334 22.1064 140.636 23.1534 140.209 23.8121C139.782 24.4708 139.152 25.3531 139.152 25.3531C139.152 25.3531 139.333 25.8706 139.867 25.9267C140.401 25.9829 142.669 25.2929 142.823 23.1023Z" fill="white"/>
<path d="M137.269 21.0566L139.506 21.5746C139.506 21.5746 137.879 22.1754 137.184 21.5912C137.316 21.1551 137.269 21.0571 137.269 21.0571V21.0566Z" fill="#DB6767"/>
<path d="M103.059 23.3768C102.692 23.2309 102.326 22.7875 102.132 22.2695C101.689 23.7277 103.361 25.663 105.513 26.243C106.871 26.6092 107.948 27.6405 107.948 27.6405C107.948 27.6405 108.525 27.6672 109.105 27.5227C107.844 25.3718 105.804 24.1109 103.059 23.3768H103.059Z" fill="#E8766F"/>
<path d="M109.756 24.9713C108.068 22.4652 109.25 20.921 107.731 20.9895C106.57 21.0419 107.023 23.4298 107.023 23.4298C107.023 23.4298 104.144 20.0713 102.613 21.5144C102.372 21.7416 102.215 21.9978 102.133 22.2706C102.327 22.7886 102.693 23.232 103.06 23.3778C105.806 24.1124 107.845 25.3728 109.106 27.5238C109.992 27.3039 110.885 26.6866 109.756 24.9717V24.9713Z" fill="#FC9590"/>
<path d="M153.657 64.6012C152.343 63.0786 152.546 61.0859 153.362 59.4363C152.855 59.0655 152.087 58.778 151.088 59.1943C151.088 59.1943 150.485 63.9176 150.274 65.0198C150.094 65.9573 151.078 67.5295 151.668 68.2044C153.189 67.3166 154.779 65.9182 153.657 64.6016L153.657 64.6012Z" fill="#FC9590"/>
<path d="M153.727 62.2904C153.706 61.3455 154.076 60.1914 154.076 60.1914C154.076 60.1914 153.83 59.7783 153.362 59.4365C152.546 61.0861 152.343 63.0788 153.657 64.6014C154.778 65.9184 153.188 67.3163 151.668 68.2041C151.772 68.3228 151.863 68.4139 151.935 68.4691C152.41 68.8366 155.977 66.4363 155.924 65.072C155.871 63.7076 153.749 63.2352 153.727 62.2904Z" fill="#E8766F"/>
<path d="M152.011 40.2187C151.378 38.1216 149.073 37.0751 146.783 36.8584C148.419 38.2784 150.45 40.4551 151.513 43.188C153.13 47.3427 150.661 59.955 150.661 59.955C150.661 59.955 150.987 60.1128 151.457 60.2936C154.205 54.0601 154.122 46.615 152.011 40.2187H152.011Z" fill="#FFB114"/>
<path d="M158.644 41.3777C157.377 30.6298 144.788 24.3701 144.788 24.3701L144.307 35.0016C144.307 35.0016 145.406 35.6613 146.785 36.8591C149.075 37.0758 151.38 38.1223 152.014 40.2194C154.124 46.6157 154.208 54.0608 151.46 60.2943C152.278 60.6085 153.534 60.993 154.288 60.7432C155.477 60.3495 159.709 50.4015 158.645 41.3782L158.644 41.3777Z" fill="#FFDE70"/>
<path d="M86.8333 19.2917L104.846 28.2773L111.065 15.9687L93.053 6.98314L86.8333 19.2917Z" fill="#3B546B"/>
<path d="M92.8652 7.35105L97.2028 17.4559L101.056 18.9743L110.901 16.2907L111.063 15.9705L93.05 6.98535L92.8652 7.35105Z" fill="#CCC4CC"/>
<path d="M102.882 22.9465L104.845 28.2802L86.832 19.295L92.2061 17.6211L99.7275 16.0879L102.882 22.9465Z" fill="white"/>
<path d="M111.061 15.9705L98.3539 18.8051L93.0488 6.98535L111.061 15.9705Z" fill="white"/>
<path d="M63.1986 93.4479L98.3047 81.3896L89.9581 57.3999L54.852 69.4581L63.1986 93.4479Z" fill="#6584C6"/>
<path d="M88.6936 77.1063L98.3006 81.3949L63.1953 93.4557L67.8865 84.2547L75.5273 72.4189L88.6936 77.1063Z" fill="white"/>
<path d="M55.0973 70.1776L74.096 77.4902L78.434 79.0652L81.0692 74.3916L90.172 58.0285L89.9549 57.4043L54.8496 69.465L55.0973 70.1776Z" fill="#CCC4CC"/>
<path d="M89.9549 57.4043L77.3701 77.7142L54.8496 69.465L89.9549 57.4043Z" fill="white"/>
<path d="M107.836 22.9662C107.783 21.7945 106.675 20.9868 106.437 19.8607C106.016 17.8684 108.879 20.7812 109.176 21.8691C109.473 22.957 108.939 23.9078 109.612 25.1351" fill="#FC9590"/>
<path d="M52.3352 27.2735C47.7814 26.2679 43.1013 27.7763 38.8004 26.3935C37.1161 25.8199 35.9448 24.4633 35.293 22.8027V36.4082H63.5176V32.1964C60.5139 29.2699 56.369 28.216 52.3356 27.273L52.3352 27.2735Z" fill="#2C3F50"/>
<path d="M71.7158 13.8398H43.4916C38.9634 13.8398 35.293 17.4872 35.293 21.9869V22.8029C35.9453 24.4635 37.1161 25.8201 38.8004 26.3937C43.1013 27.776 47.7815 26.2681 52.3352 27.2737C56.3685 28.2167 60.5135 29.2701 63.5172 32.1971V21.9874C63.5172 17.4876 67.1876 13.8403 71.7158 13.8403V13.8398Z" fill="#3B546B"/>
<path d="M79.9144 21.8589V36.2997H63.5176V21.8589C63.5176 17.4287 67.188 13.8379 71.7162 13.8379C76.2445 13.8379 79.9149 17.4287 79.9149 21.8589H79.9144Z" fill="white"/>
<path d="M64.6294 35.1947V21.8584C64.6294 18.0446 67.8085 14.9414 71.7164 14.9414C75.6243 14.9414 78.8035 18.0441 78.8035 21.8584V35.1947H64.6289H64.6294Z" fill="#D1334A"/>
<path d="M76.5757 20.4385H67.6641V21.6584H76.5757V20.4385Z" fill="#1A1A1A"/>
<path d="M72.2451 17.2373H73.8956V18.3395C73.8956 18.3395 72.3099 18.35 72.2451 18.3395C71.8368 18.2714 71.8488 17.2373 72.2451 17.2373Z" fill="white"/>
<path d="M73.9879 18.5369C74.4655 18.5369 74.8527 18.1522 74.8527 17.6776C74.8527 17.2031 74.4655 16.8184 73.9879 16.8184C73.5102 16.8184 73.123 17.2031 73.123 17.6776C73.123 18.1522 73.5102 18.5369 73.9879 18.5369Z" fill="#FFB114"/>
<path d="M42.6504 107.562L43.0467 121.276L90.5752 119.35L42.6504 107.562Z" fill="#999399"/>
<path d="M42.3344 106.684L90.5759 119.351L26.0645 112.218L42.3344 106.684Z" fill="white"/>
<path d="M50.7706 105.061L90.5759 119.35L49.8086 108.646L50.7706 105.061Z" fill="#CCC4CC"/>
<path d="M56.9285 98.2969L50.7715 105.06L90.5768 119.35L56.9285 98.2969Z" fill="white"/>
<path d="M142.822 55.665C142.822 55.665 143.308 57.1122 147.467 57.3795" stroke="#1A1A1A" stroke-width="5.45" stroke-linecap="round" stroke-linejoin="round"/>
<path d="M147.814 53.6572C147.814 53.6572 146.032 67.8013 148.646 76.6108C151.26 85.4202 159.188 105.025 159.188 105.025" stroke="#1A1A1A" stroke-width="5.45" stroke-linecap="round" stroke-linejoin="round"/>
<path d="M138.245 62.3418C138.245 62.3418 130.5 71.9034 129.335 86.9868C128.169 102.07 128.412 111.68 128.412 111.68" stroke="#1A1A1A" stroke-width="5.45" stroke-linecap="round" stroke-linejoin="round"/>
<path d="M54.8496 69.4653L55.7251 73.2566C55.7251 73.2566 61.6186 93.0173 63.1955 93.4552C58.651 80.3917 54.8496 69.4648 54.8496 69.4648V69.4653Z" fill="white"/>
</g>
<defs>
<linearGradient id="paint0_linear_1344_391" x1="107.33" y1="89.9519" x2="107.33" y2="111.515" gradientUnits="userSpaceOnUse">
<stop stop-color="#68B2FC"/>
<stop offset="1" stop-color="#EBF0F7"/>
</linearGradient>
<linearGradient id="paint1_linear_1344_391" x1="0" y1="123.243" x2="195.343" y2="123.243" gradientUnits="userSpaceOnUse">
<stop stop-color="#68B2FC"/>
<stop offset="1" stop-color="#529BF7"/>
</linearGradient>
<linearGradient id="paint2_linear_1344_391" x1="166.367" y1="30.2891" x2="181.102" y2="30.2891" gradientUnits="userSpaceOnUse">
<stop stop-color="#68B2FC"/>
<stop offset="1" stop-color="#529BF7"/>
</linearGradient>
<clipPath id="clip0_1344_391">
<rect width="196" height="138" fill="white"/>
</clipPath>
</defs>
</svg>
