<svg width="80" height="80" viewBox="0 0 80 80" fill="none" xmlns="http://www.w3.org/2000/svg">
<circle cx="40" cy="40" r="40" fill="#FFA873" fill-opacity="0.15"/>
<g clip-path="url(#clip0_97_191)">
<g clip-path="url(#clip1_97_191)">
<path d="M32.2867 39.9367C32.0168 39.9367 31.7983 39.7185 31.7983 39.4489V32.671C31.7983 32.4014 32.0168 32.1832 32.2867 32.1832C32.5566 32.1832 32.7622 32.4014 32.7622 32.671V39.4489C32.7622 39.7185 32.5437 39.9367 32.2867 39.9367Z" fill="#FFA873"/>
<path d="M35.6797 36.5349H28.8941C28.6242 36.5349 28.4058 36.3166 28.4058 36.0471C28.4058 35.7775 28.6242 35.5593 28.8941 35.5593H35.6797C35.9495 35.5593 36.168 35.7775 36.168 36.0471C36.168 36.3166 35.9495 36.5349 35.6797 36.5349Z" fill="#FFA873"/>
<path d="M29.4082 45.6234H27.7503C26.6451 45.6234 25.874 44.9943 25.4499 43.7492L25.2314 43.1201H29.8837C30.1535 43.1201 30.372 43.3384 30.372 43.608C30.372 43.8775 30.1535 44.0958 29.8837 44.0958H26.6708C27.0049 44.5964 27.4162 44.6734 27.7503 44.6734H29.4082C29.678 44.6734 29.8965 44.8916 29.8965 45.1612C29.8965 45.4308 29.678 45.6234 29.4082 45.6234Z" fill="#FFA873"/>
<path d="M54.0186 45.6237H51.0499C50.7801 45.6237 50.5616 45.4055 50.5616 45.1359C50.5616 44.8663 50.7801 44.6481 51.0499 44.6481H54.0186C54.6098 44.6481 55.021 44.3914 55.3037 44.0704H50.523C50.2531 44.0704 50.0347 43.8522 50.0347 43.5826C50.0347 43.313 50.2531 43.0948 50.523 43.0948H56.8845L56.6017 43.7623C56.1134 44.9562 55.1624 45.6237 54.0186 45.6237Z" fill="#FFA873"/>
<path d="M45.3053 44.0831H35.294C35.0241 44.0831 34.8057 43.8649 34.8057 43.5953C34.8057 43.3257 35.0241 43.1075 35.294 43.1075H45.3053C45.5751 43.1075 45.7936 43.3257 45.7936 43.5953C45.7936 43.8649 45.5623 44.0831 45.3053 44.0831Z" fill="#FFA873"/>
<path d="M29.408 45.6234H27.7502C26.5679 45.6234 25.5141 44.866 25.1414 43.7492C25.0514 43.4796 25 43.1715 25 42.8763V32.0804C25 30.5656 26.2337 29.3333 27.7502 29.3333H40.0233V43.608C40.0233 43.8775 39.8048 44.0958 39.5349 44.0958C39.2651 44.0958 39.0466 43.8775 39.0466 43.608V30.296H27.7373C26.7478 30.296 25.951 31.1048 25.951 32.0804V42.8763C25.951 43.0688 25.9767 43.2614 26.041 43.4539C26.2851 44.1856 26.9663 44.6734 27.7373 44.6734H29.3952C29.6651 44.6734 29.8835 44.8917 29.8835 45.1612C29.8835 45.4308 29.6779 45.6234 29.408 45.6234Z" fill="#FFA873"/>
<path d="M54.0186 45.6234H51.0499C50.7801 45.6234 50.5616 45.4051 50.5616 45.1356C50.5616 44.866 50.7801 44.6478 51.0499 44.6478H54.0186C54.8411 44.6478 55.5736 44.16 55.8949 43.4026C55.9977 43.1587 56.0491 42.8891 56.0491 42.6324V39.8981C56.0491 39.2434 55.6379 38.6401 55.021 38.3962L51.2684 36.9584C50.8315 36.7915 50.4845 36.4449 50.3303 36.0085L48.6082 31.3487C48.3768 30.7196 47.7728 30.296 47.1046 30.296H40.0363V43.608C40.0363 43.8775 39.8178 44.0958 39.5479 44.0958C39.278 44.0958 39.0596 43.8775 39.0596 43.608V29.3333H47.0917C48.1584 29.3333 49.1351 30.0136 49.5078 31.0149L51.2299 35.6747C51.2941 35.8544 51.4355 35.9956 51.6154 36.0598L55.368 37.4976C56.3576 37.8827 57.013 38.8454 57.013 39.8981V42.6452C57.013 43.0431 56.9359 43.4282 56.7817 43.7877C56.3062 44.9045 55.2266 45.6234 54.0186 45.6234Z" fill="#FFA873"/>
<path d="M47.8368 49.3334C45.7805 49.3334 44.1099 47.6646 44.1099 45.6107C44.1099 43.5567 45.7805 41.8879 47.8368 41.8879C49.6745 41.8879 51.2552 43.2615 51.5251 45.0715C51.5508 45.2512 51.5637 45.4181 51.5637 45.5978C51.5637 47.6646 49.893 49.3334 47.8368 49.3334ZM47.8368 42.8507C46.3203 42.8507 45.0737 44.0831 45.0737 45.6107C45.0737 47.1383 46.3075 48.3706 47.8368 48.3706C49.3661 48.3706 50.5998 47.1383 50.5998 45.6107C50.5998 45.4695 50.587 45.3411 50.5741 45.2127C50.3813 43.8648 49.199 42.8507 47.8368 42.8507Z" fill="#FFA873"/>
<path d="M47.8369 47.1769C46.9759 47.1769 46.269 46.4709 46.269 45.6108C46.269 44.7507 46.9759 44.0447 47.8369 44.0447C48.698 44.0447 49.4048 44.7507 49.4048 45.6108C49.4176 46.4709 48.7108 47.1769 47.8369 47.1769ZM47.8369 45.0075C47.5028 45.0075 47.2329 45.2771 47.2329 45.6108C47.2329 45.9446 47.5028 46.2142 47.8369 46.2142C48.1711 46.2142 48.4409 45.9446 48.4409 45.6108C48.4538 45.2771 48.1711 45.0075 47.8369 45.0075Z" fill="#FFA873"/>
<path d="M32.6468 49.3334C30.5906 49.3334 28.9199 47.6646 28.9199 45.6107C28.9199 43.5567 30.5906 41.8879 32.6468 41.8879C34.4846 41.8879 36.0782 43.2615 36.3352 45.0843C36.3609 45.2512 36.3737 45.4309 36.3737 45.6107C36.3737 47.6646 34.7031 49.3334 32.6468 49.3334ZM32.6468 42.8507C31.1304 42.8507 29.8838 44.0831 29.8838 45.6107C29.8838 47.1383 31.1175 48.3706 32.6468 48.3706C34.1761 48.3706 35.4099 47.1383 35.4099 45.6107C35.4099 45.4823 35.397 45.3411 35.3842 45.2127C35.1914 43.8648 34.0091 42.8507 32.6468 42.8507Z" fill="#FFA873"/>
<path d="M32.6465 47.1769C31.7854 47.1769 31.0786 46.4709 31.0786 45.6108C31.0786 44.7507 31.7854 44.0447 32.6465 44.0447C33.5075 44.0447 34.2144 44.7507 34.2144 45.6108C34.2144 46.4709 33.5204 47.1769 32.6465 47.1769ZM32.6465 45.0075C32.3123 45.0075 32.0425 45.2771 32.0425 45.6108C32.0425 45.9446 32.3123 46.2142 32.6465 46.2142C32.9806 46.2142 33.2505 45.9446 33.2505 45.6108C33.2505 45.2771 32.9806 45.0075 32.6465 45.0075Z" fill="#FFA873"/>
<path d="M48.9938 36.3809H41.0645V31.0022H46.3078C46.989 31.0022 47.593 31.4643 47.7857 32.119L48.9938 36.3809ZM42.0412 35.4181H47.7343L46.8733 32.3757C46.809 32.1318 46.5777 31.9649 46.3335 31.9649H42.054V35.4181H42.0412Z" fill="#FFA873"/>
<path d="M44.4956 45.6235H35.8594C35.5896 45.6235 35.3711 45.4053 35.3711 45.1357C35.3711 44.8661 35.5896 44.6479 35.8594 44.6479H44.4956C44.7655 44.6479 44.9839 44.8661 44.9839 45.1357C44.9839 45.4053 44.7526 45.6235 44.4956 45.6235Z" fill="#FFA873"/>
<path d="M39.5478 45.6235H35.8594C35.5896 45.6235 35.3711 45.4053 35.3711 45.1357C35.3711 44.8661 35.5896 44.6479 35.8594 44.6479H39.5478C39.8177 44.6479 40.0362 44.8661 40.0362 45.1357C40.0362 45.4053 39.8048 45.6235 39.5478 45.6235Z" fill="#FFA873"/>
</g>
</g>
<defs>
<clipPath id="clip0_97_191">
<rect width="32" height="32" fill="white" transform="translate(25 24)"/>
</clipPath>
<clipPath id="clip1_97_191">
<rect width="32" height="20" fill="white" transform="translate(25 29.3333)"/>
</clipPath>
</defs>
</svg>
