<svg width="80" height="80" viewBox="0 0 80 80" fill="none" xmlns="http://www.w3.org/2000/svg">
<circle cx="40" cy="40" r="40" fill="#FFA873" fill-opacity="0.15"/>
<g clip-path="url(#clip0_232_521)">
<g clip-path="url(#clip1_232_521)">
<path d="M36.3332 43.3867V44.16C36.3332 46.08 37.8932 47.6533 39.8265 47.6533H51.7998V51.7733C51.7998 53.7733 50.1732 55.4 48.1732 55.4H28.2932C26.2932 55.4 24.6665 53.7733 24.6665 51.7733V35.7733C24.6665 33.7733 26.2932 32.1467 28.2932 32.1467H48.1598C50.1598 32.1467 51.7865 33.7733 51.7865 35.7733V39.8933H39.8132C37.8932 39.8933 36.3332 41.4533 36.3332 43.3867Z" stroke="#FFA873" stroke-width="1.33333" stroke-miterlimit="10" stroke-linecap="round"/>
<path d="M55.2002 41.3867V46.1467C55.2002 46.9734 54.5335 47.6401 53.7068 47.6401H39.8268C37.9068 47.6401 36.3335 46.0801 36.3335 44.1467V43.3734C36.3335 41.4534 37.8935 39.8801 39.8268 39.8801H53.7068C54.5202 39.8934 55.2002 40.5601 55.2002 41.3867Z" stroke="#FFA873" stroke-width="1.33333" stroke-miterlimit="10" stroke-linecap="round"/>
<path d="M40.1732 45.0666C40.8875 45.0666 41.4666 44.4876 41.4666 43.7733C41.4666 43.059 40.8875 42.48 40.1732 42.48C39.4589 42.48 38.8799 43.059 38.8799 43.7733C38.8799 44.4876 39.4589 45.0666 40.1732 45.0666Z" stroke="#FFA873" stroke-width="1.33333" stroke-miterlimit="10" stroke-linecap="round"/>
<path d="M48.6265 32.1733L32.1865 32.1466L32.2265 32.1066L39.0532 26.76L41.3865 24.9333L48.6265 32.1733Z" stroke="#FFA873" stroke-width="1.33333" stroke-miterlimit="10" stroke-linecap="round"/>
<path d="M39.0531 26.76L32.2265 32.1067L27.9731 32.0934L37.1865 24.8934L39.0531 26.76Z" stroke="#FFA873" stroke-width="1.33333" stroke-miterlimit="10" stroke-linecap="round"/>
<path d="M36.3332 43.3867V44.16C36.3332 46.08 37.8932 47.6533 39.8265 47.6533H51.7998V51.7733C51.7998 53.7733 50.1732 55.4 48.1732 55.4H28.2932C26.2932 55.4 24.6665 53.7733 24.6665 51.7733V35.7733C24.6665 33.7733 26.2932 32.1467 28.2932 32.1467H48.1598C50.1598 32.1467 51.7865 33.7733 51.7865 35.7733V39.8933H39.8132C37.8932 39.8933 36.3332 41.4533 36.3332 43.3867Z" stroke="#FFA873" stroke-width="1.33333" stroke-miterlimit="10" stroke-linecap="round"/>
<path d="M55.2002 41.3867V46.1467C55.2002 46.9734 54.5335 47.6401 53.7068 47.6401H39.8268C37.9068 47.6401 36.3335 46.0801 36.3335 44.1467V43.3734C36.3335 41.4534 37.8935 39.8801 39.8268 39.8801H53.7068C54.5202 39.8934 55.2002 40.5601 55.2002 41.3867Z" stroke="#FFA873" stroke-width="1.33333" stroke-miterlimit="10" stroke-linecap="round"/>
<path d="M40.1732 45.0666C40.8875 45.0666 41.4666 44.4876 41.4666 43.7733C41.4666 43.059 40.8875 42.48 40.1732 42.48C39.4589 42.48 38.8799 43.059 38.8799 43.7733C38.8799 44.4876 39.4589 45.0666 40.1732 45.0666Z" stroke="#FFA873" stroke-width="1.33333" stroke-miterlimit="10" stroke-linecap="round"/>
<path d="M48.6265 32.1733L32.1865 32.1466L32.2265 32.1066L39.0532 26.76L41.3865 24.9333L48.6265 32.1733Z" stroke="#FFA873" stroke-width="1.33333" stroke-miterlimit="10" stroke-linecap="round"/>
<path d="M39.0531 26.76L32.2265 32.1067L27.9731 32.0934L37.1865 24.8934L39.0531 26.76Z" stroke="#FFA873" stroke-width="1.33333" stroke-miterlimit="10" stroke-linecap="round"/>
</g>
</g>
<defs>
<clipPath id="clip0_232_521">
<rect width="32" height="32" fill="white" transform="translate(24 24)"/>
</clipPath>
<clipPath id="clip1_232_521">
<rect width="31.8667" height="32.0667" fill="white" transform="translate(24 24)"/>
</clipPath>
</defs>
</svg>
