<svg width="80" height="80" viewBox="0 0 80 80" fill="none" xmlns="http://www.w3.org/2000/svg">
<circle cx="40" cy="40" r="40" fill="#5A9BFE" fill-opacity="0.15"/>
<g clip-path="url(#clip0_97_123)">
<path d="M40.3271 54.6667C36.138 54.6667 32.2347 53.0127 29.3135 50.0032C26.529 47.1306 25 43.3501 25 39.3333C25 35.0305 26.8273 30.8894 30.0096 27.9919C32.8438 25.4177 36.4984 24 40.3271 24C44.3298 24 48.1212 25.5296 50.9927 28.3152C54.0009 31.2252 55.6542 35.1425 55.6542 39.3333C55.6542 43.5242 54.0009 47.4415 50.9927 50.3514C48.1212 53.1371 44.3298 54.6667 40.3271 54.6667ZM40.3271 24.9327C36.7346 24.9327 33.2913 26.2633 30.6436 28.6883C27.6478 31.4117 25.9323 35.2917 25.9323 39.3458C25.9323 43.1138 27.3743 46.6705 29.9847 49.369C32.7195 52.1919 36.3866 53.7464 40.3271 53.7464C44.0812 53.7464 47.6488 52.3039 50.3463 49.6923C53.1681 46.9565 54.7344 43.2755 54.7344 39.3458C54.7344 35.4161 53.1805 31.7351 50.3463 28.9992C47.6488 26.3752 44.0936 24.9327 40.3271 24.9327Z" fill="#5A9BFE"/>
<path d="M29.6367 50.3389L29.3259 50.0156C26.529 47.1305 25 43.35 25 39.3333C25 35.0305 26.8273 30.8894 30.0096 27.9918L30.3452 27.6934L30.656 28.0167C33.4405 30.8894 34.9819 34.6823 34.9819 38.6866C34.9819 38.9104 34.9819 39.1343 34.9695 39.3581C34.7954 43.4619 33.0178 47.2549 29.9723 50.028L29.6367 50.3389ZM30.3079 28.9991C27.5234 31.6977 25.9323 35.4409 25.9323 39.3333C25.9323 42.9396 27.2624 46.3719 29.674 49.0207C32.3341 46.4465 33.8756 43.0143 34.0372 39.3084C34.0496 39.097 34.0496 38.8856 34.0496 38.6742C34.0496 35.0802 32.7195 31.6479 30.3079 28.9991Z" fill="#5A9BFE"/>
<path d="M50.6693 50.6624L50.3461 50.3515C47.3379 47.4415 45.6846 43.5243 45.6846 39.3334C45.6846 35.1425 47.3379 31.2253 50.3461 28.3153L50.6693 28.0044L50.9925 28.3153C54.0007 31.2253 55.654 35.1425 55.654 39.3334C55.654 43.5243 54.0007 47.4415 50.9925 50.3515L50.6693 50.6624ZM50.6693 29.3102C48.0464 32.0087 46.6044 35.5529 46.6044 39.3334C46.6044 43.1139 48.0464 46.6581 50.6693 49.3566C53.2922 46.6581 54.7342 43.1139 54.7342 39.3334C54.7342 35.5529 53.2922 32.0087 50.6693 29.3102Z" fill="#5A9BFE"/>
<path d="M40.7995 24.4725H39.8672V54.2065H40.7995V24.4725Z" fill="#5A9BFE"/>
<path d="M55.2065 38.8732H25.4722V39.8059H55.2065V38.8732Z" fill="#5A9BFE"/>
</g>
<defs>
<clipPath id="clip0_97_123">
<rect width="30.6667" height="30.6667" fill="white" transform="translate(25 24)"/>
</clipPath>
</defs>
</svg>
