<svg width="40" height="40" viewBox="0 0 40 40" fill="none" xmlns="http://www.w3.org/2000/svg">
<g clip-path="url(#clip0_161_32)">
<path d="M20 39.5C30.7696 39.5 39.5 30.7696 39.5 20C39.5 9.23045 30.7696 0.5 20 0.5C9.23045 0.5 0.5 9.23045 0.5 20C0.5 30.7696 9.23045 39.5 20 39.5Z" stroke="#23496B"/>
<path d="M30.5 14.0001L28.25 14.3751L29.75 12.5001L27.125 13.2501C23.75 9.50012 18.5 13.6251 20 17.0001C14 17.0001 11 12.5001 11 12.5001C11 12.5001 8.75 15.8751 12.5 18.5001L10.25 17.7501C10.25 20.0001 11.75 21.5001 14.375 22.2501H11.75C13.25 25.2501 15.875 25.2501 15.875 25.2501C15.875 25.2501 13.625 27.1251 9.5 27.1251C21.875 33.1251 29.375 21.8751 28.25 15.8751L30.5 14.0001Z" fill="#23496B"/>
</g>
<defs>
<clipPath id="clip0_161_32">
<rect width="40" height="40" fill="white"/>
</clipPath>
</defs>
</svg>
