<svg width="80" height="80" viewBox="0 0 80 80" fill="none" xmlns="http://www.w3.org/2000/svg">
<circle cx="40" cy="40" r="40" fill="#FFA873" fill-opacity="0.15"/>
<path d="M39.8933 34.0266L40.68 35.8666C40.7333 36.0266 40.88 36.12 41.0267 36.1333L43.0267 36.32C43.4533 36.36 43.6133 36.88 43.3067 37.16L41.8 38.48C41.68 38.5866 41.6267 38.7466 41.6667 38.8933L42.1067 40.8533C42.2 41.2666 41.76 41.5866 41.3867 41.3733L39.6667 40.3466C39.5333 40.2666 39.36 40.2666 39.2267 40.3466L37.5067 41.3733C37.1467 41.5866 36.6933 41.2666 36.7867 40.8533L37.2267 38.8933C37.2667 38.7466 37.2133 38.5866 37.0933 38.48L35.5867 37.16C35.2667 36.88 35.44 36.36 35.8667 36.32L37.8667 36.1333C38.0267 36.12 38.16 36.0266 38.2267 35.88L39.0133 34.04C39.1733 33.64 39.72 33.64 39.8933 34.0266Z" stroke="#FFA873" stroke-width="1.33333" stroke-miterlimit="10" stroke-linecap="round" stroke-linejoin="round"/>
<path d="M48.5165 37.9262C48.5509 32.9188 44.5196 28.8316 39.5122 28.7971C34.5048 28.7626 30.4176 32.794 30.3831 37.8014C30.3487 42.8088 34.38 46.896 39.3874 46.9304C44.3948 46.9649 48.482 42.9336 48.5165 37.9262Z" stroke="#FFA873" stroke-width="1.33333" stroke-miterlimit="10" stroke-linecap="round" stroke-linejoin="round"/>
<path d="M38.2133 46.8401L35.96 52.5067L33.1067 49.2401L28.8 49.6401L31.6533 42.4934" stroke="#FFA873" stroke-width="1.33333" stroke-miterlimit="10" stroke-linecap="round" stroke-linejoin="round"/>
<path d="M40.6666 46.8401L42.9333 52.5067L45.7733 49.2401L50.0933 49.6401L47.2266 42.4934" stroke="#FFA873" stroke-width="1.33333" stroke-miterlimit="10" stroke-linecap="round" stroke-linejoin="round"/>
</svg>
